<svg width="200" height="40" viewBox="0 0 200 40" fill="none" xmlns="http://www.w3.org/2000/svg">
<path d="M66.9325 27.2761L69.4285 23.5321L71.9005 27.2761C72.1165 27.5881 72.4525 27.7561 72.8365 27.7561H75.0445V10.9561H72.2365V23.5561L70.8205 21.4201L70.3405 20.7241C69.9085 20.0521 68.9245 20.0521 68.4925 20.7241L68.0125 21.4201L66.5965 23.5561V10.9561H63.8125V27.7561H65.9965C66.3805 27.7561 66.7165 27.5881 66.9325 27.2761ZM84.9651 11.0041C84.8931 10.9801 84.7971 10.9561 84.7251 10.9561H78.5571C77.9331 10.9561 77.4531 11.4601 77.4531 12.0841V27.7561H80.2371V23.6761C81.2691 23.4601 82.2051 23.0521 83.0451 22.5001V27.7561H85.8531V12.0841C85.8531 11.5561 85.4691 11.1241 84.9651 11.0041ZM80.2371 20.7721V13.7641H83.0451V18.5641C82.3971 19.5961 81.4131 20.3881 80.2371 20.7721ZM95.7698 11.0041C95.6978 10.9801 95.6018 10.9561 95.5298 10.9561H88.2578V27.7801H91.0418V23.6761C91.9058 23.5081 92.6978 23.1721 93.4418 22.7641L93.8498 23.5321V27.7801H96.6578V23.5321L95.3858 21.1561C95.8898 20.5801 96.3218 19.9561 96.6578 19.2841V12.0841C96.6338 11.5561 96.2738 11.1241 95.7698 11.0041ZM91.0418 13.7641H93.8498V18.5641C93.2018 19.5961 92.2178 20.3881 91.0418 20.7721V13.7641ZM106.574 11.0041C106.502 10.9801 106.406 10.9561 106.334 10.9561H100.166C99.5425 10.9561 99.0625 11.4601 99.0625 12.0841V27.7561H101.846V23.6761C102.878 23.4601 103.814 23.0521 104.654 22.5001C105.854 21.7081 106.814 20.5801 107.438 19.2841V12.0841C107.438 11.5561 107.078 11.1241 106.574 11.0041ZM101.846 20.7721V13.7641H104.654V18.5641C104.006 19.5961 103.022 20.3881 101.846 20.7721ZM112.651 10.9561H109.867V26.6521C109.867 27.2761 110.347 27.7561 110.971 27.7561H118.243V24.9721H112.651V10.9561ZM128.184 11.0041C128.112 10.9801 128.016 10.9561 127.944 10.9561H121.776C121.152 10.9561 120.672 11.4601 120.672 12.0841V27.7561H123.456V23.6761C124.488 23.4601 125.424 23.0521 126.264 22.5001V27.7561H129.072V12.0841C129.072 11.5561 128.688 11.1241 128.184 11.0041ZM123.456 20.7721V13.7641H126.264V18.5641C125.616 19.5961 124.632 20.3881 123.456 20.7721ZM138.677 10.9561L135.869 16.5721L133.061 10.9561H130.277L134.477 19.3561V27.7561H137.261V19.3561L141.461 10.9561H138.677ZM142.68 24.9721V27.7561H144.36C144.96 27.7561 145.464 27.2761 145.464 26.6521V24.9721H142.68ZM153.475 24.9721H150.667V13.7641H153.475V16.6201C154.675 16.1881 155.683 15.3001 156.259 14.1721V12.0841C156.259 11.4601 155.779 10.9561 155.155 10.9561H147.883V27.7561H155.155C155.779 27.7561 156.259 27.2761 156.259 26.6521V19.5481H153.475V24.9721ZM161.471 10.9561H158.687V26.6521C158.687 27.2761 159.167 27.7561 159.791 27.7561H167.063V24.9721H161.471V10.9561ZM169.492 12.0841V26.6521C169.492 27.2761 169.972 27.7561 170.596 27.7561H176.764C177.388 27.7561 177.868 27.2761 177.868 26.6521V12.0841C177.868 11.4601 177.388 10.9561 176.764 10.9561H170.596C169.972 10.9561 169.492 11.4601 169.492 12.0841ZM175.084 24.9721H172.276V13.7641H175.084V24.9721ZM185.889 10.9561V24.9721H183.081V10.9561H180.297V26.6521C180.297 27.2761 180.777 27.7561 181.401 27.7561H187.569C188.193 27.7561 188.673 27.2761 188.673 26.6521V10.9561H185.889ZM191.102 10.9561V27.7561H198.374C198.998 27.7561 199.478 27.2761 199.478 26.6521V12.0841C199.478 11.4601 198.998 10.9561 198.374 10.9561H191.102ZM196.694 24.9721H193.886V13.7641H196.694V24.9721Z" fill="#ECECEC"/>
<path d="M27.5911 23.4418H19.6808C19.594 23.4418 19.5151 23.4978 19.4835 23.5777L12.0469 39.712C11.9917 39.8559 12.0943 40.0077 12.2443 39.9997H35.0118C35.1618 39.9997 35.2566 39.8399 35.2092 39.704L27.7726 23.5697C27.749 23.4978 27.67 23.4418 27.5911 23.4418Z" fill="#ECECEC"/>
<path d="M12.1496 35.4047L18.5993 21.5159C18.6151 21.4759 18.623 21.428 18.6072 21.38L9.27599 1.1222C9.21283 0.882458 8.86548 0.914423 8.86548 1.17014L11.7548 35.3248C11.7391 35.5486 12.0627 35.6205 12.1496 35.4047Z" fill="#ECECEC"/>
<path d="M0.584284 13.5007L6.6709 0.0913184C6.79721 -0.0844893 7.05773 0.0114055 7.04983 0.22717L10.255 37.3386C10.2471 37.5623 9.9392 37.6263 9.85236 37.4185L0.229034 16.4974C-0.173583 15.5065 -0.0393773 14.3717 0.584284 13.5007Z" fill="#E0E0E0"/>
<path d="M35.5171 35.3248L38.4065 1.17011C38.4065 0.922377 38.0591 0.882421 37.996 1.12216L28.6647 21.38C28.6489 21.428 28.6568 21.4759 28.6726 21.5159L35.1224 35.4047C35.2092 35.6204 35.5329 35.5485 35.5171 35.3248Z" fill="#ECECEC"/>
<path d="M47.0351 16.4974L37.4118 37.4186C37.325 37.6343 37.0171 37.5704 37.0092 37.3386L40.2143 0.227236C40.2064 0.0114717 40.4669 -0.0764319 40.5933 0.0913846L46.6878 13.5007C47.3114 14.3718 47.4377 15.5065 47.0351 16.4974Z" fill="#E0E0E0"/>
</svg>
