<svg width="190" height="30" viewBox="0 0 190 30" fill="none" xmlns="http://www.w3.org/2000/svg">
<path d="M54.5846 23.6506L57.0806 19.9066L59.5526 23.6506C59.7686 23.9626 60.1046 24.1306 60.4886 24.1306H62.6966V7.33061H59.8886V19.9306L58.4726 17.7946L57.9926 17.0986C57.5606 16.4266 56.5766 16.4266 56.1446 17.0986L55.6646 17.7946L54.2486 19.9306V7.33061H51.4646V24.1306H53.6486C54.0326 24.1306 54.3686 23.9626 54.5846 23.6506ZM72.6172 7.37861C72.5452 7.35461 72.4492 7.33061 72.3772 7.33061H66.2092C65.5852 7.33061 65.1052 7.83461 65.1052 8.45861V24.1306H67.8892V20.0506C68.9212 19.8346 69.8572 19.4266 70.6972 18.8746V24.1306H73.5052V8.45861C73.5052 7.93061 73.1212 7.49861 72.6172 7.37861ZM67.8892 17.1466V10.1386H70.6972V14.9386C70.0492 15.9706 69.0652 16.7626 67.8892 17.1466ZM83.4219 7.37861C83.3499 7.35461 83.2539 7.33061 83.1819 7.33061H75.9099V24.1546H78.6939V20.0506C79.5579 19.8826 80.3499 19.5466 81.0939 19.1386L81.5019 19.9066V24.1546H84.3099V19.9066L83.0379 17.5306C83.5419 16.9546 83.9739 16.3306 84.3099 15.6586V8.45861C84.2859 7.93061 83.9259 7.49861 83.4219 7.37861ZM78.6939 10.1386H81.5019V14.9386C80.8539 15.9706 79.8699 16.7626 78.6939 17.1466V10.1386ZM94.2266 7.37861C94.1546 7.35461 94.0586 7.33061 93.9866 7.33061H87.8186C87.1946 7.33061 86.7146 7.83461 86.7146 8.45861V24.1306H89.4986V20.0506C90.5306 19.8346 91.4666 19.4266 92.3066 18.8746C93.5066 18.0826 94.4666 16.9546 95.0906 15.6586V8.45861C95.0906 7.93061 94.7306 7.49861 94.2266 7.37861ZM89.4986 17.1466V10.1386H92.3066V14.9386C91.6586 15.9706 90.6746 16.7626 89.4986 17.1466ZM100.303 7.33061H97.5192V23.0266C97.5192 23.6506 97.9992 24.1306 98.6232 24.1306H105.895V21.3466H100.303V7.33061ZM115.836 7.37861C115.764 7.35461 115.668 7.33061 115.596 7.33061H109.428C108.804 7.33061 108.324 7.83461 108.324 8.45861V24.1306H111.108V20.0506C112.14 19.8346 113.076 19.4266 113.916 18.8746V24.1306H116.724V8.45861C116.724 7.93061 116.34 7.49861 115.836 7.37861ZM111.108 17.1466V10.1386H113.916V14.9386C113.268 15.9706 112.284 16.7626 111.108 17.1466ZM126.329 7.33061L123.521 12.9466L120.713 7.33061H117.929L122.129 15.7306V24.1306H124.913V15.7306L129.113 7.33061H126.329ZM130.332 21.3466V24.1306H132.012C132.612 24.1306 133.116 23.6506 133.116 23.0266V21.3466H130.332ZM141.127 21.3466H138.319V10.1386H141.127V12.9946C142.327 12.5626 143.335 11.6746 143.911 10.5466V8.45861C143.911 7.83461 143.431 7.33061 142.807 7.33061H135.535V24.1306H142.807C143.431 24.1306 143.911 23.6506 143.911 23.0266V15.9226H141.127V21.3466ZM149.124 7.33061H146.34V23.0266C146.34 23.6506 146.82 24.1306 147.444 24.1306H154.716V21.3466H149.124V7.33061ZM157.144 8.45861V23.0266C157.144 23.6506 157.624 24.1306 158.248 24.1306H164.416C165.04 24.1306 165.52 23.6506 165.52 23.0266V8.45861C165.52 7.83461 165.04 7.33061 164.416 7.33061H158.248C157.624 7.33061 157.144 7.83461 157.144 8.45861ZM162.736 21.3466H159.928V10.1386H162.736V21.3466ZM173.541 7.33061V21.3466H170.733V7.33061H167.949V23.0266C167.949 23.6506 168.429 24.1306 169.053 24.1306H175.221C175.845 24.1306 176.325 23.6506 176.325 23.0266V7.33061H173.541ZM178.754 7.33061V24.1306H186.026C186.65 24.1306 187.13 23.6506 187.13 23.0266V8.45861C187.13 7.83461 186.65 7.33061 186.026 7.33061H178.754ZM184.346 21.3466H181.538V10.1386H184.346V21.3466Z" fill="#57D6FF"/>
<path d="M19.3651 17.5813H13.8132C13.7523 17.5813 13.6969 17.6233 13.6747 17.6832L8.45531 29.784C8.41653 29.8919 8.48856 30.0057 8.59383 29.9998H24.5734C24.6787 29.9998 24.7452 29.8799 24.7119 29.778L19.4925 17.6772C19.4759 17.6233 19.4205 17.5813 19.3651 17.5813Z" fill="#57D6FF"/>
<path d="M8.52731 26.5536L13.0541 16.1369C13.0652 16.107 13.0708 16.071 13.0597 16.0351L6.51047 0.841662C6.46615 0.661859 6.22235 0.685833 6.22235 0.877623L8.25028 26.4936C8.23919 26.6614 8.46637 26.7154 8.52731 26.5536Z" fill="#57D6FF"/>
<path d="M0.410084 10.1255L4.68202 0.0684888C4.77067 -0.0633671 4.95352 0.00855415 4.94798 0.170377L7.19753 28.004C7.19199 28.1718 6.9759 28.2197 6.91495 28.0639L0.160749 12.373C-0.12183 11.6299 -0.0276372 10.7788 0.410084 10.1255Z" fill="#57D6FF"/>
<path d="M24.928 26.4936L26.956 0.877595C26.956 0.691798 26.7122 0.661831 26.6678 0.841634L20.1187 16.035C20.1076 16.071 20.1131 16.107 20.1242 16.1369L24.651 26.5535C24.712 26.7154 24.9391 26.6614 24.928 26.4936Z" fill="#57D6FF"/>
<path d="M33.012 12.373L26.2578 28.0639C26.1969 28.2257 25.9808 28.1777 25.9753 28.0039L28.2248 0.170351C28.2193 0.0085275 28.4021 -0.0574003 28.4908 0.0684622L32.7682 10.1255C33.206 10.7788 33.2946 11.6298 33.012 12.373Z" fill="#57D6FF"/>
</svg>
